<?xml version="1.0" encoding="utf-8"?>
<!-- Generator: Adobe Illustrator 19.0.0, SVG Export Plug-In . SVG Version: 6.00 Build 0)  -->
<svg version="1.1" id="Layer_1" xmlns="http://www.w3.org/2000/svg" xmlns:xlink="http://www.w3.org/1999/xlink" x="0px" y="0px"
	 viewBox="0 0 318.5 53.8" style="enable-background:new 0 0 318.5 53.8;" xml:space="preserve">
<style type="text/css">
	.st0{fill:#045FA6;}
	.st1{fill:#F15E3E;}
</style>
<g id="XMLID_39_">
	<path id="XMLID_96_" class="st0" d="M59.5,12.8v16c0,1.6,0.3,2.7,0.9,3.2c0.6,0.6,1.6,0.9,3.2,0.9h3v2.8H63c-2.3,0-4-0.5-5.2-1.6
		c-1.1-1.1-1.7-2.9-1.7-5.3v-16h-3.6V10h3.6V3.6h3.3V10h7.1v2.8H59.5z"/>
	<path id="XMLID_93_" class="st0" d="M68.7,15.9c1.1-2,2.5-3.5,4.4-4.6c1.9-1.1,4-1.6,6.3-1.6c2.4,0,4.6,0.6,6.3,1.7
		c1.8,1.1,3.1,2.6,3.8,4.3V10h3.3v25.7h-3.3V30c-0.8,1.8-2.1,3.2-3.9,4.4c-1.8,1.1-3.9,1.7-6.3,1.7c-2.3,0-4.4-0.5-6.3-1.6
		c-1.9-1.1-3.3-2.7-4.4-4.7c-1.1-2-1.6-4.3-1.6-7C67.2,20.2,67.7,17.9,68.7,15.9z M88.3,17.4c-0.8-1.6-2-2.8-3.5-3.6
		c-1.5-0.8-3.1-1.3-4.8-1.3c-1.8,0-3.5,0.4-4.9,1.2c-1.4,0.8-2.6,2-3.4,3.6c-0.8,1.6-1.2,3.4-1.2,5.5c0,2.1,0.4,3.9,1.2,5.5
		c0.8,1.6,2,2.8,3.4,3.6c1.4,0.8,3.1,1.2,4.9,1.2c1.8,0,3.4-0.4,4.8-1.3c1.5-0.8,2.6-2.1,3.5-3.6c0.8-1.6,1.3-3.4,1.3-5.5
		S89.2,19,88.3,17.4z"/>
	<path id="XMLID_91_" class="st0" d="M116.7,12.4c1.9,1.9,2.9,4.7,2.9,8.3v15.1h-3.2V21c0-2.8-0.7-4.9-2.1-6.4
		c-1.4-1.5-3.3-2.2-5.7-2.2c-2.5,0-4.5,0.8-5.9,2.4c-1.5,1.6-2.2,3.9-2.2,6.9v14h-3.3V10h3.3v4.4c0.8-1.6,2-2.8,3.5-3.6
		c1.5-0.8,3.3-1.2,5.2-1.2C112.3,9.5,114.8,10.5,116.7,12.4z"/>
	<path id="XMLID_89_" class="st0" d="M132.8,32.5l8.7-22.5h3.5l-10.3,25.7h-3.7L120.6,10h3.5L132.8,32.5z"/>
	<path id="XMLID_86_" class="st0" d="M169.2,24.1h-21.3c0.1,1.9,0.6,3.6,1.4,5c0.8,1.4,2,2.4,3.3,3.1c1.4,0.7,2.9,1.1,4.5,1.1
		c2.1,0,3.9-0.5,5.4-1.6c1.5-1,2.4-2.4,2.9-4.2h3.5c-0.6,2.5-2,4.6-4,6.1c-2.1,1.6-4.6,2.4-7.7,2.4c-2.4,0-4.6-0.5-6.5-1.6
		c-1.9-1.1-3.4-2.6-4.5-4.6s-1.6-4.3-1.6-7c0-2.7,0.5-5,1.6-7c1.1-2,2.6-3.5,4.5-4.6c1.9-1.1,4.1-1.6,6.5-1.6s4.6,0.5,6.4,1.6
		c1.8,1.1,3.2,2.5,4.2,4.3c1,1.8,1.5,3.8,1.5,6C169.3,22.7,169.3,23.5,169.2,24.1z M164.8,16.5c-0.8-1.3-1.9-2.4-3.3-3.1
		c-1.4-0.7-2.9-1-4.5-1c-2.4,0-4.5,0.8-6.3,2.4s-2.7,3.8-2.9,6.6H166C166,19.5,165.6,17.9,164.8,16.5z"/>
	<path id="XMLID_82_" class="st0" d="M195.2,24.1h-21.3c0.1,1.9,0.6,3.6,1.4,5c0.8,1.4,2,2.4,3.3,3.1c1.4,0.7,2.9,1.1,4.5,1.1
		c2.1,0,3.9-0.5,5.4-1.6c1.5-1,2.4-2.4,2.9-4.2h3.5c-0.6,2.5-2,4.6-4,6.1c-2.1,1.6-4.6,2.4-7.7,2.4c-2.4,0-4.6-0.5-6.5-1.6
		c-1.9-1.1-3.4-2.6-4.5-4.6s-1.6-4.3-1.6-7c0-2.7,0.5-5,1.6-7c1.1-2,2.6-3.5,4.5-4.6c1.9-1.1,4.1-1.6,6.5-1.6s4.6,0.5,6.4,1.6
		c1.8,1.1,3.2,2.5,4.2,4.3c1,1.8,1.5,3.8,1.5,6C195.3,22.7,195.3,23.5,195.2,24.1z M190.8,16.5c-0.8-1.3-1.9-2.4-3.3-3.1
		c-1.4-0.7-2.9-1-4.5-1c-2.4,0-4.5,0.8-6.3,2.4s-2.7,3.8-2.9,6.6H192C192,19.5,191.6,17.9,190.8,16.5z"/>
	<path id="XMLID_79_" class="st0" d="M204.6,10.8c1.5-0.9,3.3-1.3,5.5-1.3V13h-0.9c-2.4,0-4.3,0.6-5.7,1.9c-1.4,1.3-2.2,3.4-2.2,6.4
		v14.4H198V10h3.3v4.6C202,13,203.2,11.7,204.6,10.8z"/>
	<path id="XMLID_75_" class="st0" d="M211.8,15.9c1.1-2,2.5-3.5,4.4-4.6c1.9-1.1,4-1.6,6.3-1.6c2.4,0,4.6,0.6,6.3,1.7
		c1.8,1.1,3.1,2.6,3.8,4.3V10h3.3v25.7h-3.3V30c-0.8,1.8-2.1,3.2-3.9,4.4c-1.8,1.1-3.9,1.7-6.3,1.7c-2.3,0-4.4-0.5-6.3-1.6
		c-1.9-1.1-3.3-2.7-4.4-4.7c-1.1-2-1.6-4.3-1.6-7C210.3,20.2,210.8,17.9,211.8,15.9z M231.4,17.4c-0.8-1.6-2-2.8-3.5-3.6
		c-1.5-0.8-3.1-1.3-4.8-1.3c-1.8,0-3.5,0.4-4.9,1.2c-1.4,0.8-2.6,2-3.4,3.6c-0.8,1.6-1.2,3.4-1.2,5.5c0,2.1,0.4,3.9,1.2,5.5
		c0.8,1.6,2,2.8,3.4,3.6c1.4,0.8,3.1,1.2,4.9,1.2c1.8,0,3.4-0.4,4.8-1.3c1.5-0.8,2.6-2.1,3.5-3.6c0.8-1.6,1.3-3.4,1.3-5.5
		S232.3,19,231.4,17.4z"/>
	<path id="XMLID_49_" class="st0" d="M243.5,0.9v34.8h-3.3V0.9H243.5z"/>
	<path id="XMLID_43_" class="st0" d="M247.8,15.9c1.1-2,2.5-3.5,4.4-4.6c1.9-1.1,4-1.6,6.3-1.6c2.4,0,4.6,0.6,6.3,1.7
		c1.8,1.1,3.1,2.6,3.8,4.3V10h3.3v25.7h-3.3V30c-0.8,1.8-2.1,3.2-3.9,4.4c-1.8,1.1-3.9,1.7-6.3,1.7c-2.3,0-4.4-0.5-6.3-1.6
		c-1.9-1.1-3.3-2.7-4.4-4.7c-1.1-2-1.6-4.3-1.6-7C246.2,20.2,246.7,17.9,247.8,15.9z M267.4,17.4c-0.8-1.6-2-2.8-3.5-3.6
		c-1.5-0.8-3.1-1.3-4.8-1.3c-1.8,0-3.5,0.4-4.9,1.2c-1.4,0.8-2.6,2-3.4,3.6c-0.8,1.6-1.2,3.4-1.2,5.5c0,2.1,0.4,3.9,1.2,5.5
		c0.8,1.6,2,2.8,3.4,3.6c1.4,0.8,3.1,1.2,4.9,1.2c1.8,0,3.4-0.4,4.8-1.3c1.5-0.8,2.6-2.1,3.5-3.6c0.8-1.6,1.3-3.4,1.3-5.5
		S268.2,19,267.4,17.4z"/>
	<path id="XMLID_41_" class="st0" d="M314.2,12.4c1.9,1.9,2.8,4.7,2.8,8.3v15.1h-3.2V21c0-2.8-0.7-4.9-2-6.4
		c-1.3-1.5-3.2-2.2-5.5-2.2c-2.4,0-4.3,0.8-5.8,2.4c-1.4,1.6-2.2,3.9-2.2,7v13.9H295V21c0-2.8-0.7-4.9-2-6.4s-3.2-2.2-5.6-2.2
		c-2.4,0-4.3,0.8-5.8,2.4s-2.2,3.9-2.2,7v13.9h-3.3V10h3.3v4.4c0.8-1.6,2-2.8,3.5-3.6c1.5-0.8,3.2-1.2,5-1.2c2.2,0,4.2,0.5,5.9,1.6
		c1.7,1.1,2.9,2.6,3.6,4.7c0.7-2,1.9-3.6,3.6-4.7s3.6-1.6,5.7-1.6C309.8,9.5,312.3,10.5,314.2,12.4z"/>
</g>
<g id="XMLID_176_">
	<polygon id="XMLID_178_" class="st0" points="0,1.1 0,34.5 19.9,14.6 19.9,53.8 39.9,33.9 39.9,1.1 	"/>
	<polygon id="XMLID_177_" class="st1" points="16.9,21.9 16.9,34.2 4.6,34.2 	"/>
</g>
</svg>
